<svg width="153" height="189" viewBox="0 0 153 189" fill="none" xmlns="http://www.w3.org/2000/svg">
<path fill-rule="evenodd" clip-rule="evenodd" d="M83.9742 127.561C81.5231 127.851 79.029 128 76.5 128C72.4923 128 68.572 127.626 64.7722 126.91C69.0863 123.159 72.237 119.062 74.4831 114.642C76.3697 119.609 79.3876 123.954 83.9742 127.561ZM86.8015 127.162C81.0209 123.165 77.5759 118.087 75.6945 112.022C80.8602 99.6862 79.733 85.0006 77.4822 68.4054C85.5018 78.1779 93.0609 86.4251 101.332 91.8053C104.786 94.0521 108.363 95.7983 112.146 96.9532C114.661 102.383 115.572 108.232 115.008 114.865C106.936 121.108 97.3065 125.434 86.8015 127.162ZM86.5218 129.232C117.662 124.413 141.5 97.4903 141.5 65C141.5 29.1015 112.399 0 76.5 0C40.6015 0 11.5 29.1015 11.5 65C11.5 100.899 40.6015 130 76.5 130C79.8437 130 83.1285 129.748 86.3363 129.261C86.3752 129.286 86.4141 129.312 86.4532 129.337L86.5218 129.232ZM117.124 113.155C122.247 108.828 126.67 103.699 130.2 97.9612C124.557 98.8987 119.414 98.7257 114.613 97.615C116.564 102.409 117.377 107.527 117.124 113.155ZM131.537 95.6809C124.895 97.0275 119.004 96.7995 113.563 95.2839C112.257 92.6472 110.589 90.103 108.545 87.6181C102.449 80.2049 93.0398 73.3487 80.0729 66.0945C94.4081 66.3071 105.521 65.1354 114.306 61.4949C117.531 60.1587 120.432 58.4946 123.058 56.4584C128.961 57.9455 134.309 61.2402 139.473 66.858C139.171 77.3018 136.326 87.1085 131.537 95.6809ZM139.492 63.9871C139.366 56.017 137.761 48.4064 134.938 41.4179C132.125 46.9739 128.852 51.4111 124.93 54.9017C130.12 56.4664 134.908 59.3997 139.492 63.9871ZM133.899 38.9931C130.778 45.5825 127.102 50.5677 122.569 54.2894C119.685 53.6593 116.673 53.4198 113.503 53.5251C103.711 53.8506 92.4336 57.4676 78.7533 62.8331C87.3366 50.5283 93.1438 40.1664 95.8453 30.7697C96.6189 28.079 97.1376 25.4679 97.3952 22.9143C101.863 18.5267 107.114 15.6261 113.64 14.1063C122.363 20.4828 129.385 29.0478 133.899 38.9931ZM111.478 12.5941C106.27 9.11127 100.514 6.38413 94.3669 4.56946C96.6477 9.64071 97.6975 14.7219 97.5756 20.0208C101.532 16.5602 106.081 14.0934 111.478 12.5941ZM91.8239 3.87671C94.7965 9.81539 95.982 15.7164 95.4695 22.0127C93.6073 23.9124 91.8798 26.0586 90.256 28.4546C84.8113 36.4879 80.5225 47.3406 76.1623 61.1167C73.2732 48.6109 69.6519 38.2758 64.14 30.3215C62.0207 27.2632 59.6264 24.5631 56.8968 22.2286C56.698 16.2221 57.8817 10.2122 60.6394 4.01335C65.7067 2.69925 71.0217 2 76.5 2C81.7852 2 86.9185 2.65083 91.8239 3.87671ZM58.1696 4.70823C51.6163 6.69802 45.5152 9.72699 40.058 13.6033C45.8384 15.1671 50.7186 17.5112 54.8768 20.6139C54.9186 15.3593 55.9783 10.089 58.1696 4.70823ZM37.9863 15.1395C29.9551 21.3521 23.466 29.4619 19.1908 38.7972C21.6744 45.0095 24.8611 49.6295 28.7719 53.0889C32.3867 52.2945 36.1487 52.0962 40.1103 52.4156C49.621 53.1823 60.2607 56.9316 72.7571 62.4499C65.0332 52.2804 59.4651 42.8134 56.7486 33.5062C55.7405 30.0525 55.1264 26.6252 54.9378 23.1979C50.3704 19.4717 44.8299 16.7749 37.9863 15.1395ZM18.0926 41.3427C15.6445 47.3808 14.1055 53.8847 13.6455 60.6845C17.7743 57.2856 22.0136 55.0032 26.4664 53.683C23.1478 50.4945 20.3581 46.458 18.0926 41.3427ZM13.5192 63.4274C13.5064 63.9501 13.5 64.4743 13.5 65C13.5 74.951 15.8071 84.3632 19.9157 92.7308C25.9801 94.509 31.5617 94.9035 36.8832 94.002C38.9856 89.8123 41.8683 86.1657 45.3541 82.8774C52.3363 76.2908 61.7467 71.137 72.0594 65.8772C58.9381 65.4274 47.8708 64.5732 38.9301 61.284C34.9408 59.8164 31.3796 57.8665 28.2432 55.2686C23.0937 56.5718 18.2555 59.1981 13.5192 63.4274ZM21.167 95.1457C24.3022 100.888 28.3053 106.089 32.9999 110.571C33.1066 105.13 34.1209 100.386 35.8851 96.1733C31.2075 96.7818 26.3389 96.4546 21.167 95.1457ZM34.9983 112.4C42.674 119.126 51.9977 124.017 62.2847 126.39C67.6072 122.058 71.219 117.228 73.5706 111.896C72.7629 109.089 72.2632 106.106 72.0024 102.965C71.174 92.9895 72.7466 81.3066 74.5123 68.4797C65.7724 79.293 57.5623 87.2338 48.9936 91.8388C45.4813 93.7264 41.9165 95.0493 38.2428 95.7845C36.0499 100.502 34.8834 105.938 34.9983 112.4ZM46.7265 84.3322C53.3499 78.0841 62.2833 73.1257 72.3425 67.9788C63.9024 78.3179 56.0783 85.7608 48.0468 90.0771C45.2199 91.5963 42.3618 92.7311 39.4338 93.4662C41.342 90.0851 43.8094 87.0841 46.7265 84.3322ZM39.6206 59.407C36.3824 58.2156 33.4441 56.6949 30.8005 54.7334C33.7307 54.2446 36.7683 54.1526 39.9496 54.4091C48.867 55.128 58.9326 58.5857 70.9395 63.8359C58.353 63.3732 47.9771 62.4813 39.6206 59.407ZM107 88.8884C101.282 81.9345 92.4343 75.3826 80.0509 68.377C87.6633 77.5684 94.7628 85.1463 102.423 90.1288C105.137 91.8945 107.922 93.3345 110.828 94.4016C109.758 92.5242 108.484 90.6919 107 88.8884ZM113.541 59.6472C105.307 63.0589 94.8001 64.2551 80.9947 64.1061C93.9658 59.08 104.493 55.8257 113.569 55.524C115.943 55.4451 118.22 55.5683 120.416 55.9179C118.307 57.3848 116.024 58.6183 113.541 59.6472ZM93.9232 30.2171C91.5012 38.6412 86.4576 47.9804 78.9212 59.064C82.9737 46.6059 86.9792 36.8541 91.9116 29.5766C92.9095 28.1042 93.9451 26.7336 95.0266 25.4628C94.7561 27.0181 94.3879 28.6008 93.9232 30.2171ZM62.4961 31.4607C67.6932 38.9606 71.2057 48.7623 74.0431 60.8352C66.5514 50.9148 61.2533 41.8017 58.6684 32.9458C57.9011 30.3167 57.372 27.7077 57.0968 25.1035C59.0858 27.0002 60.8744 29.1204 62.4961 31.4607ZM75.9908 72.4309C77.7255 86.2705 78.3128 98.338 74.8271 108.657C74.4352 106.786 74.1644 104.833 73.9956 102.799C73.2654 94.0067 74.4491 83.8133 75.9908 72.4309Z" fill="white"/>
<path d="M12.7148 173.434L19.8047 150.562H25.7617L15.7227 179H11.7578L12.7148 173.434ZM6.17188 150.562L13.2227 173.434L14.2383 179H10.2344L0.234375 150.562H6.17188ZM36.9695 157.867V179H31.7938V157.867H36.9695ZM31.4422 152.34C31.4422 151.572 31.7026 150.934 32.2234 150.426C32.7573 149.918 33.4734 149.664 34.3719 149.664C35.2703 149.664 35.9799 149.918 36.5008 150.426C37.0346 150.934 37.3016 151.572 37.3016 152.34C37.3016 153.095 37.0346 153.727 36.5008 154.234C35.9799 154.742 35.2703 154.996 34.3719 154.996C33.4734 154.996 32.7573 154.742 32.2234 154.234C31.7026 153.727 31.4422 153.095 31.4422 152.34ZM56.732 174.508V164.762C56.732 164.046 56.6083 163.427 56.3609 162.906C56.1135 162.385 55.7359 161.982 55.2281 161.695C54.7203 161.409 54.0758 161.266 53.2945 161.266C52.6044 161.266 51.999 161.383 51.4781 161.617C50.9703 161.852 50.5797 162.184 50.3063 162.613C50.0328 163.03 49.8961 163.512 49.8961 164.059H44.7203C44.7203 163.186 44.9286 162.359 45.3453 161.578C45.762 160.784 46.3544 160.081 47.1227 159.469C47.9039 158.844 48.8349 158.355 49.9156 158.004C51.0094 157.652 52.2333 157.477 53.5875 157.477C55.1891 157.477 56.6148 157.75 57.8648 158.297C59.1279 158.831 60.1174 159.638 60.8336 160.719C61.5628 161.799 61.9273 163.16 61.9273 164.801V174.02C61.9273 175.074 61.9924 175.979 62.1227 176.734C62.2659 177.477 62.4742 178.121 62.7477 178.668V179H57.4938C57.2464 178.466 57.0576 177.789 56.9273 176.969C56.7971 176.135 56.732 175.315 56.732 174.508ZM57.4547 166.129L57.4938 169.195H54.232C53.4247 169.195 52.7151 169.28 52.1031 169.449C51.4911 169.605 50.9898 169.84 50.5992 170.152C50.2086 170.452 49.9156 170.816 49.7203 171.246C49.525 171.663 49.4273 172.138 49.4273 172.672C49.4273 173.193 49.5445 173.661 49.7789 174.078C50.0263 174.495 50.3779 174.827 50.8336 175.074C51.3023 175.309 51.8492 175.426 52.4742 175.426C53.3857 175.426 54.1799 175.243 54.857 174.879C55.5341 174.501 56.0615 174.046 56.4391 173.512C56.8167 172.978 57.0185 172.47 57.0445 171.988L58.5289 174.215C58.3466 174.749 58.0732 175.315 57.7086 175.914C57.344 176.513 56.8753 177.073 56.3023 177.594C55.7294 178.115 55.0393 178.544 54.232 178.883C53.4247 179.221 52.4872 179.391 51.4195 179.391C50.0523 179.391 48.8284 179.117 47.7477 178.57C46.6669 178.023 45.8141 177.275 45.1891 176.324C44.5641 175.374 44.2516 174.293 44.2516 173.082C44.2516 171.962 44.4599 170.973 44.8766 170.113C45.2932 169.254 45.9117 168.531 46.732 167.945C47.5523 167.346 48.568 166.897 49.7789 166.598C51.0029 166.285 52.4026 166.129 53.9781 166.129H57.4547ZM74.9125 162.203V179H69.7562V157.867H74.6195L74.9125 162.203ZM74.1508 167.672H72.5687C72.5687 166.201 72.7445 164.846 73.0961 163.609C73.4607 162.372 73.9945 161.298 74.6977 160.387C75.4008 159.462 76.2667 158.746 77.2953 158.238C78.337 157.73 79.5414 157.477 80.9086 157.477C81.8591 157.477 82.7315 157.62 83.5258 157.906C84.3201 158.18 85.0036 158.616 85.5766 159.215C86.1625 159.801 86.6117 160.569 86.9242 161.52C87.2367 162.457 87.393 163.583 87.393 164.898V179H82.2367V165.426C82.2367 164.436 82.0935 163.661 81.807 163.102C81.5336 162.542 81.1365 162.151 80.6156 161.93C80.0948 161.695 79.4698 161.578 78.7406 161.578C77.9333 161.578 77.2367 161.741 76.6508 162.066C76.0779 162.379 75.6026 162.815 75.225 163.375C74.8604 163.935 74.587 164.579 74.4047 165.309C74.2354 166.038 74.1508 166.826 74.1508 167.672ZM87.0023 166.715L84.8734 167.105C84.8865 165.777 85.0687 164.534 85.4203 163.375C85.7719 162.203 86.2862 161.181 86.9633 160.309C87.6534 159.423 88.5062 158.733 89.5219 158.238C90.5505 157.73 91.7354 157.477 93.0766 157.477C94.1182 157.477 95.0557 157.626 95.8891 157.926C96.7354 158.212 97.4581 158.674 98.057 159.312C98.656 159.938 99.1117 160.751 99.4242 161.754C99.7497 162.757 99.9125 163.98 99.9125 165.426V179H94.7172V165.406C94.7172 164.378 94.574 163.59 94.2875 163.043C94.0141 162.496 93.6169 162.118 93.0961 161.91C92.5753 161.689 91.9633 161.578 91.2602 161.578C90.544 161.578 89.919 161.715 89.3852 161.988C88.8643 162.249 88.4216 162.613 88.057 163.082C87.7055 163.551 87.4385 164.098 87.2562 164.723C87.087 165.335 87.0023 165.999 87.0023 166.715ZM117.234 179.391C115.632 179.391 114.193 179.13 112.917 178.609C111.641 178.089 110.554 177.366 109.655 176.441C108.77 175.504 108.086 174.417 107.605 173.18C107.136 171.93 106.902 170.589 106.902 169.156V168.375C106.902 166.747 107.136 165.27 107.605 163.941C108.073 162.6 108.738 161.448 109.597 160.484C110.456 159.521 111.485 158.779 112.683 158.258C113.881 157.737 115.202 157.477 116.648 157.477C118.145 157.477 119.467 157.73 120.613 158.238C121.758 158.733 122.715 159.436 123.484 160.348C124.252 161.259 124.831 162.353 125.222 163.629C125.613 164.892 125.808 166.292 125.808 167.828V169.996H109.245V166.441H120.73V166.051C120.704 165.23 120.547 164.482 120.261 163.805C119.974 163.115 119.532 162.568 118.933 162.164C118.334 161.747 117.559 161.539 116.609 161.539C115.84 161.539 115.17 161.708 114.597 162.047C114.037 162.372 113.568 162.841 113.191 163.453C112.826 164.052 112.553 164.768 112.37 165.602C112.188 166.435 112.097 167.359 112.097 168.375V169.156C112.097 170.042 112.214 170.862 112.448 171.617C112.696 172.372 113.054 173.03 113.523 173.59C114.004 174.137 114.577 174.566 115.241 174.879C115.918 175.178 116.687 175.328 117.546 175.328C118.627 175.328 119.603 175.12 120.476 174.703C121.361 174.273 122.129 173.642 122.78 172.809L125.378 175.504C124.935 176.155 124.336 176.78 123.581 177.379C122.839 177.978 121.941 178.466 120.886 178.844C119.831 179.208 118.614 179.391 117.234 179.391ZM145.141 174.508V149H150.336V179H145.648L145.141 174.508ZM131.566 168.688V168.277C131.566 166.663 131.749 165.198 132.113 163.883C132.491 162.555 133.038 161.415 133.754 160.465C134.47 159.514 135.336 158.779 136.352 158.258C137.38 157.737 138.546 157.477 139.848 157.477C141.111 157.477 142.211 157.73 143.148 158.238C144.099 158.746 144.906 159.469 145.57 160.406C146.247 161.344 146.788 162.457 147.191 163.746C147.595 165.022 147.888 166.428 148.07 167.965V169.078C147.888 170.576 147.595 171.949 147.191 173.199C146.788 174.449 146.247 175.543 145.57 176.48C144.906 177.405 144.099 178.121 143.148 178.629C142.198 179.137 141.085 179.391 139.809 179.391C138.52 179.391 137.361 179.124 136.332 178.59C135.316 178.056 134.451 177.307 133.734 176.344C133.031 175.38 132.491 174.247 132.113 172.945C131.749 171.643 131.566 170.224 131.566 168.688ZM136.742 168.277V168.688C136.742 169.599 136.82 170.452 136.977 171.246C137.133 172.04 137.387 172.743 137.738 173.355C138.09 173.954 138.539 174.423 139.086 174.762C139.646 175.1 140.323 175.27 141.117 175.27C142.133 175.27 142.966 175.048 143.617 174.605C144.281 174.15 144.796 173.531 145.16 172.75C145.525 171.956 145.759 171.064 145.863 170.074V167.008C145.811 166.227 145.674 165.504 145.453 164.84C145.245 164.176 144.945 163.603 144.555 163.121C144.177 162.639 143.708 162.262 143.148 161.988C142.589 161.715 141.924 161.578 141.156 161.578C140.362 161.578 139.685 161.754 139.125 162.105C138.565 162.444 138.109 162.919 137.758 163.531C137.406 164.143 137.146 164.853 136.977 165.66C136.82 166.467 136.742 167.34 136.742 168.277Z" fill="white"/>
</svg>
