<svg width="26" height="27" viewBox="0 0 26 27" fill="none" xmlns="http://www.w3.org/2000/svg">
<path d="M13.0029 7.16308C9.31389 7.16308 6.33832 10.1387 6.33832 13.8277C6.33832 17.5167 9.31389 20.4923 13.0029 20.4923C16.6919 20.4923 19.6675 17.5167 19.6675 13.8277C19.6675 10.1387 16.6919 7.16308 13.0029 7.16308ZM13.0029 18.1605C10.619 18.1605 8.67005 16.2174 8.67005 13.8277C8.67005 11.4379 10.6132 9.49482 13.0029 9.49482C15.3926 9.49482 17.3358 11.4379 17.3358 13.8277C17.3358 16.2174 15.3868 18.1605 13.0029 18.1605ZM21.4946 6.89047C21.4946 7.75472 20.7986 8.44496 19.9401 8.44496C19.0759 8.44496 18.3856 7.74892 18.3856 6.89047C18.3856 6.03202 19.0817 5.33598 19.9401 5.33598C20.7986 5.33598 21.4946 6.03202 21.4946 6.89047ZM25.9086 8.46816C25.81 6.38584 25.3344 4.54133 23.8089 3.02164C22.2892 1.50195 20.4447 1.02633 18.3624 0.921922C16.2163 0.800115 9.78372 0.800115 7.63759 0.921922C5.56107 1.02053 3.71656 1.49615 2.19108 3.01584C0.665589 4.53553 0.195761 6.38004 0.0913553 8.46236C-0.0304518 10.6085 -0.0304518 17.041 0.0913553 19.1872C0.189961 21.2695 0.665589 23.114 2.19108 24.6337C3.71656 26.1534 5.55527 26.629 7.63759 26.7334C9.78372 26.8552 16.2163 26.8552 18.3624 26.7334C20.4447 26.6348 22.2892 26.1592 23.8089 24.6337C25.3286 23.114 25.8042 21.2695 25.9086 19.1872C26.0305 17.041 26.0305 10.6143 25.9086 8.46816ZM23.1361 21.4899C22.6837 22.6268 21.8078 23.5026 20.6651 23.9609C18.954 24.6395 14.8938 24.4829 13.0029 24.4829C11.112 24.4829 7.04596 24.6337 5.34066 23.9609C4.20379 23.5084 3.32794 22.6326 2.86972 21.4899C2.19108 19.7788 2.34769 15.7186 2.34769 13.8277C2.34769 11.9368 2.19688 7.87072 2.86972 6.16542C3.32214 5.02856 4.19799 4.15271 5.34066 3.69448C7.05176 3.01584 11.112 3.17245 13.0029 3.17245C14.8938 3.17245 18.9598 3.02164 20.6651 3.69448C21.802 4.14691 22.6779 5.02276 23.1361 6.16542C23.8147 7.87652 23.6581 11.9368 23.6581 13.8277C23.6581 15.7186 23.8147 19.7846 23.1361 21.4899Z" fill="white"/>
</svg>
