<svg width="26" height="19" viewBox="0 0 26 19" fill="none" xmlns="http://www.w3.org/2000/svg">
<path d="M25.4567 3.05033C25.1577 1.92442 24.2767 1.03769 23.158 0.73676C21.1304 0.189941 13 0.189941 13 0.189941C13 0.189941 4.86961 0.189941 2.84197 0.73676C1.72334 1.03773 0.842317 1.92442 0.543295 3.05033C0 5.09112 0 9.34903 0 9.34903C0 9.34903 0 13.6069 0.543295 15.6477C0.842317 16.7736 1.72334 17.6234 2.84197 17.9244C4.86961 18.4712 13 18.4712 13 18.4712C13 18.4712 21.1304 18.4712 23.158 17.9244C24.2767 17.6234 25.1577 16.7736 25.4567 15.6477C26 13.6069 26 9.34903 26 9.34903C26 9.34903 26 5.09112 25.4567 3.05033ZM10.3409 13.2149V5.48317L17.1363 9.34912L10.3409 13.2149Z" fill="white"/>
</svg>
